grf
version=1
nRows=17
nColumns=37
inDegrees=no
endheader
time	ground_force_1_vx	ground_force_1_vy	ground_force_1_vz	ground_force_1_px	ground_force_1_py	ground_force_1_pz	ground_moment_1_mx	ground_moment_1_my	ground_moment_1_mz	ground_force_2_vx	ground_force_2_vy	ground_force_2_vz	ground_force_2_px	ground_force_2_py	ground_force_2_pz	ground_moment_2_mx	ground_moment_2_my	ground_moment_2_mz	ground_force_3_vx	ground_force_3_vy	ground_force_3_vz	ground_force_3_px	ground_force_3_py	ground_force_3_pz	ground_moment_3_mx	ground_moment_3_my	ground_moment_3_mz	ground_force_4_vx	ground_force_4_vy	ground_force_4_vz	ground_force_4_px	ground_force_4_py	ground_force_4_pz	ground_moment_4_mx	ground_moment_4_my	ground_moment_4_mz
      5.25000000	      0.00000000	     -0.00000000	      0.00000000	      0.00000000	      0.00000000	      0.00000000	      0.00000000	      0.00000000	      0.00000000	      8.53303528	     29.06777763	   -385.27465820	   -264.22309318	  -1140.75860996	      0.00000000	      0.00000000	      0.00000000	  10088.23147941	     -3.44429116	    -30.52857369	   -391.45971680	   -293.62945650	   -738.96054799	      0.00000000	      0.00000000	     -0.00000000	 -14013.60467092	      0.00000000	     -0.00000000	      0.00000000	      0.00000000	      0.00000000	      0.00000000	      0.00000000	      0.00000000	      0.00000000
      5.26000000	      0.00000000	     -0.00000000	      0.00000000	      0.00000000	      0.00000000	      0.00000000	      0.00000000	      0.00000000	      0.00000000	      8.47499847	     29.10344696	   -384.67495728	   -263.95169579	  -1140.25941638	      0.00000000	      0.00000000	      0.00000000	  10169.04855870	     -3.17808633	    -30.57044192	   -390.63964844	   -294.03830759	   -739.06436061	      0.00000000	     -0.00000000	     -0.00000000	 -14161.60232574	      0.00000000	     -0.00000000	      0.00000000	      0.00000000	      0.00000000	      0.00000000	      0.00000000	      0.00000000	      0.00000000
      5.27000000	      0.00000000	     -0.00000000	      0.00000000	      0.00000000	      0.00000000	      0.00000000	      0.00000000	      0.00000000	      0.00000000	      8.16017342	     29.07222748	   -385.44390869	   -264.36651949	  -1140.76689348	      0.00000000	      0.00000000	      0.00000000	  10068.76387767	     -3.44414737	    -30.22152298	   -392.48907471	   -293.73587732	   -738.60636197	      0.00000000	      0.00000000	     -0.00000000	 -14082.95926788	      0.00000000	     -0.00000000	      0.00000000	      0.00000000	      0.00000000	      0.00000000	      0.00000000	      0.00000000	      0.00000000
      5.28000000	      0.00000000	     -0.00000000	      0.00000000	      0.00000000	      0.00000000	      0.00000000	      0.00000000	      0.00000000	      0.00000000	      8.44338989	     29.27653122	   -386.25372314	   -264.89759008	  -1140.78713955	      0.00000000	      0.00000000	      0.00000000	  10045.47941155	     -3.19359089	    -30.09169169	   -393.08312988	   -293.43996089	   -738.94273810	      0.00000000	      0.00000000	     -0.00000000	 -14210.35879739	      0.00000000	     -0.00000000	      0.00000000	      0.00000000	      0.00000000	      0.00000000	      0.00000000	      0.00000000	      0.00000000
      5.29000000	      0.00000000	     -0.00000000	      0.00000000	      0.00000000	      0.00000000	      0.00000000	      0.00000000	      0.00000000	      0.00000000	      8.41149521	     29.66456223	   -386.85775757	   -264.04185964	  -1141.04579209	      0.00000000	      0.00000000	      0.00000000	  10248.86682938	     -3.51699473	    -30.18029754	   -394.25405884	   -293.69480201	   -739.04446457	      0.00000000	      0.00000000	     -0.00000000	 -14069.77513185	      0.00000000	     -0.00000000	      0.00000000	      0.00000000	      0.00000000	      0.00000000	      0.00000000	      0.00000000	      0.00000000
      5.30000000	      0.00000000	     -0.00000000	      0.00000000	      0.00000000	      0.00000000	      0.00000000	      0.00000000	      0.00000000	      0.00000000	      8.61505127	     29.73768806	   -386.69451904	   -263.42444563	  -1140.75973589	      0.00000000	      0.00000000	      0.00000000	  10156.09729003	     -3.43789961	    -30.26890152	   -394.31649780	   -293.82192599	   -738.84352157	      0.00000000	      0.00000000	     -0.00000000	 -14009.56055661	      0.00000000	     -0.00000000	      0.00000000	      0.00000000	      0.00000000	      0.00000000	      0.00000000	      0.00000000	      0.00000000
      5.31000000	      0.00000000	     -0.00000000	      0.00000000	      0.00000000	      0.00000000	      0.00000000	      0.00000000	      0.00000000	      0.00000000	      8.51614857	     29.38792610	   -387.46575928	   -263.10911168	  -1141.13649612	      0.00000000	      0.00000000	      0.00000000	  10281.54496861	     -3.47558645	    -30.37330597	   -394.19219971	   -293.09727333	   -739.52881443	      0.00000000	      0.00000000	     -0.00000000	 -14030.95250215	      0.00000000	     -0.00000000	      0.00000000	      0.00000000	      0.00000000	      0.00000000	      0.00000000	      0.00000000	      0.00000000
      5.32000000	      0.00000000	     -0.00000000	      0.00000000	      0.00000000	      0.00000000	      0.00000000	      0.00000000	      0.00000000	      0.00000000	      8.75138092	     29.01420403	   -388.91482544	   -263.27757751	  -1141.86224511	      0.00000000	      0.00000000	      0.00000000	  10015.45394020	     -3.26636725	    -30.59789820	   -394.56848145	   -293.47484955	   -738.67501608	      0.00000000	      0.00000000	     -0.00000000	 -14158.18037537	      0.00000000	     -0.00000000	      0.00000000	      0.00000000	      0.00000000	      0.00000000	      0.00000000	      0.00000000	      0.00000000
      5.33000000	      0.00000000	     -0.00000000	      0.00000000	      0.00000000	      0.00000000	      0.00000000	      0.00000000	      0.00000000	      0.00000000	      8.43427944	     29.33166885	   -388.85113525	   -262.74095820	  -1141.52724458	      0.00000000	      0.00000000	      0.00000000	  10135.30668341	     -3.17758494	    -30.62304660	   -395.23962402	   -293.21990923	   -738.91755117	      0.00000000	      0.00000000	     -0.00000000	 -14137.01993601	      0.00000000	     -0.00000000	      0.00000000	      0.00000000	      0.00000000	      0.00000000	      0.00000000	      0.00000000	      0.00000000
      5.34000000	      0.00000000	     -0.00000000	      0.00000000	      0.00000000	      0.00000000	      0.00000000	      0.00000000	      0.00000000	      0.00000000	      8.65341949	     29.89112854	   -390.35989380	   -262.50609644	  -1142.33042183	      0.00000000	      0.00000000	      0.00000000	  10133.49471905	     -3.17751274	    -31.10524150	   -394.03286743	   -293.02528209	   -739.73059020	      0.00000000	      0.00000000	     -0.00000000	 -14090.24054951	      0.00000000	     -0.00000000	      0.00000000	      0.00000000	      0.00000000	      0.00000000	      0.00000000	      0.00000000	      0.00000000
      5.35000000	      0.00000000	     -0.00000000	      0.00000000	      0.00000000	      0.00000000	      0.00000000	      0.00000000	      0.00000000	      0.00000000	      8.21503544	     29.93918228	   -388.14477539	   -261.68799773	  -1140.88111641	      0.00000000	      0.00000000	     -0.00000000	  10051.72221952	     -3.16129173	    -31.52269145	   -395.27099609	   -293.07050137	   -738.47380529	      0.00000000	     -0.00000000	     -0.00000000	 -14135.24943922	      0.00000000	     -0.00000000	      0.00000000	      0.00000000	      0.00000000	      0.00000000	      0.00000000	      0.00000000	      0.00000000
      5.36000000	      0.00000000	     -0.00000000	      0.00000000	      0.00000000	      0.00000000	      0.00000000	      0.00000000	      0.00000000	      0.00000000	      7.48637819	     30.37709999	   -392.25323486	   -262.43516579	  -1142.02807376	      0.00000000	      0.00000000	     -0.00000000	  10082.70324045	     -2.98372519	    -31.41021893	   -397.07913208	   -292.57029956	   -736.93729676	      0.00000000	     -0.00000000	     -0.00000000	 -14195.02850341	      0.00000000	     -0.00000000	      0.00000000	      0.00000000	      0.00000000	      0.00000000	      0.00000000	      0.00000000	      0.00000000
      5.37000000	      0.00000000	     -0.00000000	      0.00000000	      0.00000000	      0.00000000	      0.00000000	      0.00000000	      0.00000000	      0.00000000	      7.85052490	     30.57866669	   -391.51876831	   -262.09029169	  -1141.46536507	      0.00000000	      0.00000000	      0.00000000	  10216.78712857	     -2.71020663	    -31.37763190	   -395.27526855	   -292.16602346	   -738.69323791	      0.00000000	      0.00000000	     -0.00000000	 -14129.09621236	      0.00000000	     -0.00000000	      0.00000000	      0.00000000	      0.00000000	      0.00000000	      0.00000000	      0.00000000	      0.00000000
      5.38000000	      0.00000000	     -0.00000000	      0.00000000	      0.00000000	      0.00000000	      0.00000000	      0.00000000	      0.00000000	      0.00000000	      7.47715855	     30.91173935	   -391.25796509	   -261.59150926	  -1140.52882552	      0.00000000	      0.00000000	      0.00000000	  10221.85152395	     -2.73367274	    -31.36105704	   -394.44982910	   -291.88629204	   -739.29354489	      0.00000000	     -0.00000000	     -0.00000000	 -14176.80248529	      0.00000000	     -0.00000000	      0.00000000	      0.00000000	      0.00000000	      0.00000000	      0.00000000	      0.00000000	      0.00000000
      5.39000000	      0.00000000	     -0.00000000	      0.00000000	      0.00000000	      0.00000000	      0.00000000	      0.00000000	      0.00000000	      0.00000000	      7.33808327	     30.83290100	   -390.97021484	   -261.63405840	  -1140.96036253	      0.00000000	      0.00000000	      0.00000000	  10450.17049973	     -2.46746790	    -31.29860666	   -396.02835083	   -291.84314824	   -737.13439182	      0.00000000	      0.00000000	     -0.00000000	 -14158.08396393	      0.00000000	     -0.00000000	      0.00000000	      0.00000000	      0.00000000	      0.00000000	      0.00000000	      0.00000000	      0.00000000
      5.40000000	      0.00000000	     -0.00000000	      0.00000000	      0.00000000	      0.00000000	      0.00000000	      0.00000000	      0.00000000	      0.00000000	      7.29859304	     30.88908005	   -390.74899292	   -260.93927623	  -1141.02623027	      0.00000000	      0.00000000	      0.00000000	  10121.36073288	     -2.07336721	    -31.05021840	   -394.69558716	   -291.80011281	   -738.37014109	      0.00000000	      0.00000000	     -0.00000000	 -14244.81189969	      0.00000000	     -0.00000000	      0.00000000	      0.00000000	      0.00000000	      0.00000000	      0.00000000	      0.00000000	      0.00000000
      5.41000000	      0.00000000	     -0.00000000	      0.00000000	      0.00000000	      0.00000000	      0.00000000	      0.00000000	      0.00000000	      0.00000000	      7.47694206	     31.48525810	   -391.38964844	   -260.54317673	  -1141.07612598	      0.00000000	      0.00000000	      0.00000000	  10152.38291809	     -1.95163998	    -31.05621893	   -391.87863159	   -292.27455236	   -739.07993734	      0.00000000	      0.00000000	     -0.00000000	 -14155.84899112	      0.00000000	     -0.00000000	      0.00000000	      0.00000000	      0.00000000	      0.00000000	      0.00000000	      0.00000000	      0.00000000
